Coordinates
version=1
nRows=4
nColumns=107
inDegrees=yes

Units are S.I. units (second, meters, Newtons, ...)
If the header above contains a line with 'inDegrees', this indicates whether rotational values are in degrees (yes) or radians (no).

endheader
time	sternoclavicular_r2	sternoclavicular_r3	unrotscap_r3	unrotscap_r2	acromioclavicular_r2	acromioclavicular_r3	acromioclavicular_r1	unrothum_r1	unrothum_r3	unrothum_r2	elv_angle	shoulder_elv	shoulder1_r2	shoulder_rot	elbow_flexion	pro_sup	deviation	flexion	proximal_distal_r1	proximal_distal_r3	cmc_flexion	cmc_abduction	mp_flexion	ip_flexion	mcp2_flexion	mcp2_abduction	pm2_flexion	md2_flexion	mcp3_flexion	mcp3_abduction	pm3_flexion	md3_flexion	mcp4_flexion	mcp4_abduction	pm4_flexion	md4_flexion	mcp5_flexion	mcp5_abduction	pm5_flexion	md5_flexion	bicpt_tx	bicpt_ty	bicpt_tz	bicpt2_tx	bicpt2_ty	bicpt2_tz	ptpt_tx	ptpt_ty	ptpt_tz	FCUpt_tx	FCUpt_ty	FCUpt_tz	EDCpt_tx	EDCpt_ty	EDCpt_tz	APLpt_tx	APLpt_ty	APLpt_tz	FPLpt_tx	FPLpt_ty	FPLpt_tz	FPLpt2_tx	FPLpt2_ty	FPLpt2_tz	PEC1pt2_tx	PEC1pt2_ty	PEC1pt2_tz	PEC1pt3_tx	PEC1pt3_ty	PEC1pt3_tz	PEC2pt2_tx	PEC2pt2_ty	PEC2pt2_tz	PEC2pt3_tx	PEC2pt3_ty	PEC2pt3_tz	PEC3pt2_tx	PEC3pt2_ty	PEC3pt2_tz	PEC3pt3_tx	PEC3pt3_ty	PEC3pt3_tz	DELT2pt2a_tx	DELT2pt2a_ty	DELT2pt2a_tz	DELT2pt2_tx	DELT2pt2_ty	DELT2pt2_tz	LAT1pt2_tx	LAT1pt2_ty	LAT1pt2_tz	LAT1pt3_tx	LAT1pt3_ty	LAT1pt3_tz	LAT2pt2_tx	LAT2pt2_ty	LAT2pt2_tz	LAT2pt3_tx	LAT2pt3_ty	LAT2pt3_tz	LAT3pt2_tx	LAT3pt2_ty	LAT3pt2_tz	LAT3pt3_tx	LAT3pt3_ty	LAT3pt3_tz
      0.40000000	     -0.32403768	      0.13724707	     -0.13724707	      0.32403768	     -0.06561104	      0.53024533	      0.23834163	     -0.23834163	     -0.53024533	      0.06561104	     99.30548755	     76.71880086	     -1.73320772	    -22.09584076	     28.69132429	     40.67369749	      0.15073207	     -0.34433994	      0.18596828	     -0.17216997	     20.98039453	    -23.16251865	     -4.95041707	     -3.19780172	     10.04523159	      3.43222741	     21.50089846	    -20.78745231	      8.40507501	      1.00143184	      8.46160488	     13.30181725	      1.03035146	     -4.09643827	     12.81726170	     27.01085331	     -8.52206833	    -11.91681795	     20.54734635	      5.12555727	      0.00084902	     -0.03088846	     -0.00482969	      0.01657516	     -0.01799414	     -0.00739780	      0.00454467	     -0.06684329	     -0.00332648	      0.00784813	     -0.18348099	     -0.00039104	     -0.00488083	      0.00140772	      0.00014146	      0.00025303	      0.00010121	      0.00050606	      0.00032388	      0.00097164	      0.00054655	      0.00000943	     -0.00027999	     -0.00033599	      0.00251467	      0.00882267	      0.00613751	     -0.00822597	      0.01986166	     -0.01883874	      0.00251467	      0.00882267	      0.00613751	      0.00055408	      0.01841253	     -0.00967510	      0.00396877	      0.00490617	      0.01601835	      0.00000000	      0.00787222	      0.00000000	     -0.00720305	     -0.03328746	     -0.00649152	      0.01495629	     -0.00049716	     -0.00405987	     -0.00089505	      0.01500280	     -0.00613751	      0.00247205	      0.02165177	     -0.01790107	     -0.00600964	      0.01299959	     -0.00549819	     -0.01253075	      0.02744831	     -0.03073017	     -0.02352712	      0.01453396	     -0.00737354	     -0.01559950	      0.03171046	     -0.03840205
      0.43333333	     -0.32413212	      0.13728707	     -0.13728707	      0.32413212	     -0.06563016	      0.53039988	      0.23841110	     -0.23841110	     -0.53039988	      0.06563016	     99.32034436	     76.74116151	     -1.73346702	    -22.09503351	     28.70836823	     40.67310319	      0.15072086	     -0.34436098	      0.18595558	     -0.17218049	     20.97901669	    -23.16351499	     -4.95154522	     -3.19786801	     10.04423281	      3.43159011	     21.50105978	    -20.78716630	      8.40798137	      1.00213208	      8.46275275	     13.30206944	      1.03036454	     -4.09599794	     12.81786335	     27.01075334	     -8.52051284	    -11.91558702	     20.54835073	      5.12572562	      0.00084958	     -0.03089042	     -0.00483000	      0.01657515	     -0.01799877	     -0.00739786	      0.00454472	     -0.06684327	     -0.00332644	      0.00784807	     -0.18348100	     -0.00039103	     -0.00488076	      0.00140769	      0.00014147	      0.00025302	      0.00010121	      0.00050604	      0.00032387	      0.00097160	      0.00054652	      0.00000943	     -0.00027997	     -0.00033596	      0.00251541	      0.00882524	      0.00613930	     -0.00822836	      0.01986745	     -0.01884423	      0.00251541	      0.00882524	      0.00613930	      0.00055424	      0.01841789	     -0.00967792	      0.00396962	      0.00490760	      0.01602038	      0.00000000	      0.00787684	      0.00000000	     -0.00720515	     -0.03329717	     -0.00649536	      0.01495585	     -0.00049714	     -0.00405957	     -0.00089531	      0.01500717	     -0.00613930	      0.00247277	      0.02165808	     -0.01790629	     -0.00601140	      0.01300337	     -0.00549979	     -0.01253440	      0.02745631	     -0.03073912	     -0.02353398	      0.01453820	     -0.00737568	     -0.01560405	      0.03171971	     -0.03841325
      0.46666667	     -0.32327861	      0.13692556	     -0.13692556	      0.32327861	     -0.06545734	      0.52900323	      0.23778331	     -0.23778331	     -0.52900323	      0.06545734	     99.45420984	     76.53908566	     -1.73580342	    -22.97833334	     28.70832501	     40.86173122	      0.12584081	     -0.41659240	      0.15782194	     -0.20829620	     21.04546539	    -23.14857433	     -7.95941808	     -0.51177632	     11.41040020	      2.90840273	     20.41586529	    -18.67859416	      9.87382671	      0.81374085	      9.30184460	     12.43721987	      1.99724313	     -4.43021663	     14.91645777	     23.78484153	     -6.54761685	    -11.84504969	     19.99528763	      5.15592167	      0.00084958	     -0.03089041	     -0.00483000	      0.01657517	     -0.01799876	     -0.00737752	      0.00453078	     -0.06685228	     -0.00334163	      0.00786711	     -0.18347703	     -0.00039226	     -0.00490340	      0.00141541	      0.00014003	      0.00028089	      0.00011236	      0.00056179	      0.00035954	      0.00107863	      0.00060673	      0.00000927	     -0.00028008	     -0.00033609	      0.00250878	      0.00880200	      0.00612313	     -0.00820670	      0.01981514	     -0.01879461	      0.00250878	      0.00880200	      0.00612313	      0.00055278	      0.01836940	     -0.00965244	      0.00396200	      0.00489468	      0.01600191	      0.00000000	      0.00783512	      0.00000000	     -0.00718618	     -0.03320949	     -0.00646073	      0.01543559	     -0.00052513	     -0.00440055	     -0.00089296	      0.01496766	     -0.00612313	      0.00246626	      0.02160105	     -0.01785914	     -0.00599557	      0.01296913	     -0.00548531	     -0.01250139	      0.02738401	     -0.03065818	     -0.02347201	      0.01449992	     -0.00735626	     -0.01556296	      0.03163618	     -0.03831210
      0.50000000	     -0.32268036	      0.13667217	     -0.13667217	      0.32268036	     -0.06533621	      0.52802426	      0.23734327	     -0.23734327	     -0.52802426	      0.06533621	     99.53544935	     76.39744355	     -1.73722131	    -23.95364609	     29.01651886	     41.33138793	      0.11984146	     -0.35583447	      0.15088649	     -0.17791724	     20.18187152	    -23.44158189	     -3.94312730	     -8.52162028	      6.82581360	      3.45385259	     24.98797761	    -20.43013550	      3.99129060	      1.56139413	     14.23893562	     20.45940405	     -1.42916157	     -3.62911962	     12.94181591	     31.42548993	     -9.34765716	    -10.77939932	     19.06729276	      5.35102706	      0.00085978	     -0.03092574	     -0.00483569	      0.01657522	     -0.01808248	     -0.00732688	      0.00449608	     -0.06687472	     -0.00337947	      0.00791451	     -0.18346716	     -0.00039532	     -0.00495975	      0.00143463	      0.00013647	      0.00025808	      0.00010323	      0.00051615	      0.00033034	      0.00099101	      0.00055745	      0.00001138	     -0.00027828	     -0.00033394	      0.00250414	      0.00878571	      0.00611180	     -0.00819151	      0.01977847	     -0.01875983	      0.00250414	      0.00878571	      0.00611180	      0.00055176	      0.01833540	     -0.00963457	      0.00395666	      0.00488562	      0.01598892	      0.00000000	      0.00780593	      0.00000000	     -0.00717288	     -0.03314803	     -0.00643650	      0.01595343	     -0.00055635	     -0.00479011	     -0.00089130	      0.01493996	     -0.00611180	      0.00246170	      0.02156107	     -0.01782609	     -0.00598447	      0.01294513	     -0.00547515	     -0.01247826	      0.02733333	     -0.03060145	     -0.02342857	      0.01447308	     -0.00734265	     -0.01553416	      0.03157764	     -0.03824120
